{
    "asset" : {
        "generator" : "Khronos glTF Blender I/O v1.5.17",
        "version" : "2.0"
    },
    "scene" : 0,
    "scenes" : [
        {
            "name" : "Scene",
            "nodes" : [
                0,
                1
            ]
        }
    ],
    "nodes" : [
        {
            "mesh" : 0,
            "name" : "Level"
        },
        {
            "mesh" : 1,
            "name" : "Pipe",
            "translation" : [
                10.9375,
                1.28125,
                7.90625
            ]
        }
    ],
    "materials" : [
        {
            "alphaCutoff" : 0,
            "alphaMode" : "MASK",
            "doubleSided" : true,
            "emissiveFactor" : [
                1,
                1,
                1
            ],
            "emissiveTexture" : {
                "index" : 0
            },
            "name" : "Testtilemap",
            "pbrMetallicRoughness" : {}
        }
    ],
    "meshes" : [
        {
            "name" : "Cube.001",
            "primitives" : [
                {
                    "attributes" : {
                        "POSITION" : 0,
                        "NORMAL" : 1,
                        "TEXCOORD_0" : 2
                    },
                    "indices" : 3,
                    "material" : 0
                }
            ]
        },
        {
            "name" : "Cylinder.001",
            "primitives" : [
                {
                    "attributes" : {
                        "POSITION" : 4,
                        "NORMAL" : 5,
                        "TEXCOORD_0" : 6
                    },
                    "indices" : 7,
                    "material" : 0
                }
            ]
        }
    ],
    "textures" : [
        {
            "sampler" : 0,
            "source" : 0
        }
    ],
    "images" : [
        {
            "mimeType" : "image/png",
            "name" : "Testtilemap",
            "uri" : "Testtilemap.png"
        }
    ],
    "accessors" : [
        {
            "bufferView" : 0,
            "componentType" : 5126,
            "count" : 1123,
            "max" : [
                17,
                3,
                12
            ],
            "min" : [
                0,
                -1,
                -2
            ],
            "type" : "VEC3"
        },
        {
            "bufferView" : 1,
            "componentType" : 5126,
            "count" : 1123,
            "type" : "VEC3"
        },
        {
            "bufferView" : 2,
            "componentType" : 5126,
            "count" : 1123,
            "type" : "VEC2"
        },
        {
            "bufferView" : 3,
            "componentType" : 5123,
            "count" : 1758,
            "type" : "SCALAR"
        },
        {
            "bufferView" : 4,
            "componentType" : 5126,
            "count" : 274,
            "max" : [
                0.38544806838035583,
                1.004849910736084,
                0.3356524109840393
            ],
            "min" : [
                -0.3854480981826782,
                -1.3790088891983032,
                -1.0542868375778198
            ],
            "type" : "VEC3"
        },
        {
            "bufferView" : 5,
            "componentType" : 5126,
            "count" : 274,
            "type" : "VEC3"
        },
        {
            "bufferView" : 6,
            "componentType" : 5126,
            "count" : 274,
            "type" : "VEC2"
        },
        {
            "bufferView" : 7,
            "componentType" : 5123,
            "count" : 468,
            "type" : "SCALAR"
        }
    ],
    "bufferViews" : [
        {
            "buffer" : 0,
            "byteLength" : 13476,
            "byteOffset" : 0
        },
        {
            "buffer" : 0,
            "byteLength" : 13476,
            "byteOffset" : 13476
        },
        {
            "buffer" : 0,
            "byteLength" : 8984,
            "byteOffset" : 26952
        },
        {
            "buffer" : 0,
            "byteLength" : 3516,
            "byteOffset" : 35936
        },
        {
            "buffer" : 0,
            "byteLength" : 3288,
            "byteOffset" : 39452
        },
        {
            "buffer" : 0,
            "byteLength" : 3288,
            "byteOffset" : 42740
        },
        {
            "buffer" : 0,
            "byteLength" : 2192,
            "byteOffset" : 46028
        },
        {
            "buffer" : 0,
            "byteLength" : 936,
            "byteOffset" : 48220
        }
    ],
    "samplers" : [
        {
            "magFilter" : 9728,
            "minFilter" : 9984
        }
    ],
    "buffers" : [
        {
            "byteLength" : 49156,
            "uri" : "TestLevel.bin"
        }
    ]
}
