{
    "asset" : {
        "generator" : "Khronos glTF Blender I/O v1.5.17",
        "version" : "2.0"
    },
    "scene" : 0,
    "scenes" : [
        {
            "name" : "Scene",
            "nodes" : [
                0,
                1,
                2,
                3
            ]
        }
    ],
    "nodes" : [
        {
            "mesh" : 0,
            "name" : "Level"
        },
        {
            "mesh" : 1,
            "name" : "Pipe",
            "translation" : [
                10.9375,
                1.28125,
                7.90625
            ]
        },
        {
            "mesh" : 2,
            "name" : "Cylinder",
            "rotation" : [
                0.4998425245285034,
                0.5001569986343384,
                -0.49984297156333923,
                -0.5001574158668518
            ],
            "scale" : [
                8,
                8,
                8
            ],
            "translation" : [
                22.46875,
                2.46875,
                9.25
            ]
        },
        {
            "mesh" : 3,
            "name" : "Small Pipe",
            "rotation" : [
                4.848744720220566e-05,
                4.8908917960943654e-05,
                0.7071273922920227,
                -0.7070862054824829
            ],
            "scale" : [
                8,
                8,
                8
            ],
            "translation" : [
                20.59375,
                1.125,
                6.84375
            ]
        }
    ],
    "materials" : [
        {
            "alphaCutoff" : 0,
            "alphaMode" : "MASK",
            "doubleSided" : true,
            "emissiveFactor" : [
                1,
                1,
                1
            ],
            "emissiveTexture" : {
                "index" : 0
            },
            "name" : "Testtilemap",
            "pbrMetallicRoughness" : {}
        }
    ],
    "meshes" : [
        {
            "name" : "Cube.001",
            "primitives" : [
                {
                    "attributes" : {
                        "POSITION" : 0,
                        "NORMAL" : 1,
                        "TEXCOORD_0" : 2
                    },
                    "indices" : 3,
                    "material" : 0
                }
            ]
        },
        {
            "name" : "Cylinder.001",
            "primitives" : [
                {
                    "attributes" : {
                        "POSITION" : 4,
                        "NORMAL" : 5,
                        "TEXCOORD_0" : 6
                    },
                    "indices" : 7,
                    "material" : 0
                }
            ]
        },
        {
            "name" : "Cylinder",
            "primitives" : [
                {
                    "attributes" : {
                        "POSITION" : 8,
                        "NORMAL" : 9,
                        "TEXCOORD_0" : 10
                    },
                    "indices" : 11,
                    "material" : 0
                }
            ]
        },
        {
            "name" : "Cylinder.002",
            "primitives" : [
                {
                    "attributes" : {
                        "POSITION" : 12,
                        "NORMAL" : 13,
                        "TEXCOORD_0" : 14
                    },
                    "indices" : 11,
                    "material" : 0
                }
            ]
        }
    ],
    "textures" : [
        {
            "sampler" : 0,
            "source" : 0
        }
    ],
    "images" : [
        {
            "mimeType" : "image/png",
            "name" : "Testtilemap",
            "uri" : "Testtilemap.png"
        }
    ],
    "accessors" : [
        {
            "bufferView" : 0,
            "componentType" : 5126,
            "count" : 2500,
            "max" : [
                29,
                3,
                12
            ],
            "min" : [
                0,
                -1,
                -3
            ],
            "type" : "VEC3"
        },
        {
            "bufferView" : 1,
            "componentType" : 5126,
            "count" : 2500,
            "type" : "VEC3"
        },
        {
            "bufferView" : 2,
            "componentType" : 5126,
            "count" : 2500,
            "type" : "VEC2"
        },
        {
            "bufferView" : 3,
            "componentType" : 5123,
            "count" : 3888,
            "type" : "SCALAR"
        },
        {
            "bufferView" : 4,
            "componentType" : 5126,
            "count" : 240,
            "max" : [
                0.38544806838035583,
                1.004849910736084,
                0.3356524109840393
            ],
            "min" : [
                -0.3854480981826782,
                -1.3790088891983032,
                -1.0542868375778198
            ],
            "type" : "VEC3"
        },
        {
            "bufferView" : 5,
            "componentType" : 5126,
            "count" : 240,
            "type" : "VEC3"
        },
        {
            "bufferView" : 6,
            "componentType" : 5126,
            "count" : 240,
            "type" : "VEC2"
        },
        {
            "bufferView" : 7,
            "componentType" : 5123,
            "count" : 372,
            "type" : "SCALAR"
        },
        {
            "bufferView" : 8,
            "componentType" : 5126,
            "count" : 206,
            "max" : [
                0.0440630242228508,
                0.11442199349403381,
                0.0440630242228508
            ],
            "min" : [
                -0.0440630204975605,
                -0.03125,
                -0.0440630242228508
            ],
            "type" : "VEC3"
        },
        {
            "bufferView" : 9,
            "componentType" : 5126,
            "count" : 206,
            "type" : "VEC3"
        },
        {
            "bufferView" : 10,
            "componentType" : 5126,
            "count" : 206,
            "type" : "VEC2"
        },
        {
            "bufferView" : 11,
            "componentType" : 5123,
            "count" : 324,
            "type" : "SCALAR"
        },
        {
            "bufferView" : 12,
            "componentType" : 5126,
            "count" : 206,
            "max" : [
                0.0440630242228508,
                0.11442199349403381,
                0.0440630242228508
            ],
            "min" : [
                -0.0440630204975605,
                -0.03125,
                -0.0440630242228508
            ],
            "type" : "VEC3"
        },
        {
            "bufferView" : 13,
            "componentType" : 5126,
            "count" : 206,
            "type" : "VEC3"
        },
        {
            "bufferView" : 14,
            "componentType" : 5126,
            "count" : 206,
            "type" : "VEC2"
        }
    ],
    "bufferViews" : [
        {
            "buffer" : 0,
            "byteLength" : 30000,
            "byteOffset" : 0
        },
        {
            "buffer" : 0,
            "byteLength" : 30000,
            "byteOffset" : 30000
        },
        {
            "buffer" : 0,
            "byteLength" : 20000,
            "byteOffset" : 60000
        },
        {
            "buffer" : 0,
            "byteLength" : 7776,
            "byteOffset" : 80000
        },
        {
            "buffer" : 0,
            "byteLength" : 2880,
            "byteOffset" : 87776
        },
        {
            "buffer" : 0,
            "byteLength" : 2880,
            "byteOffset" : 90656
        },
        {
            "buffer" : 0,
            "byteLength" : 1920,
            "byteOffset" : 93536
        },
        {
            "buffer" : 0,
            "byteLength" : 744,
            "byteOffset" : 95456
        },
        {
            "buffer" : 0,
            "byteLength" : 2472,
            "byteOffset" : 96200
        },
        {
            "buffer" : 0,
            "byteLength" : 2472,
            "byteOffset" : 98672
        },
        {
            "buffer" : 0,
            "byteLength" : 1648,
            "byteOffset" : 101144
        },
        {
            "buffer" : 0,
            "byteLength" : 648,
            "byteOffset" : 102792
        },
        {
            "buffer" : 0,
            "byteLength" : 2472,
            "byteOffset" : 103440
        },
        {
            "buffer" : 0,
            "byteLength" : 2472,
            "byteOffset" : 105912
        },
        {
            "buffer" : 0,
            "byteLength" : 1648,
            "byteOffset" : 108384
        }
    ],
    "samplers" : [
        {
            "magFilter" : 9728,
            "minFilter" : 9984
        }
    ],
    "buffers" : [
        {
            "byteLength" : 110032,
            "uri" : "TestLevel2.0.bin"
        }
    ]
}
